<?xml version="1.0" standalone="no"?>
<!DOCTYPE svg PUBLIC "-//W3C//DTD SVG 20010904//EN"
 "http://www.w3.org/TR/2001/REC-SVG-20010904/DTD/svg10.dtd">
<svg version="1.0" xmlns="http://www.w3.org/2000/svg"
 width="305.000000pt" height="305.000000pt" viewBox="0 0 305.000000 305.000000"
 preserveAspectRatio="xMidYMid meet">
<metadata>
Created by potrace 1.11, written by Peter Selinger 2001-2013
</metadata>
<g transform="translate(0.000000,305.000000) scale(0.100000,-0.100000)"
fill="#000000" stroke="none">
<path d="M1058 2943 c-37 -38 -87 -124 -232 -403 -168 -322 -184 -356 -169
-368 10 -7 22 -11 27 -9 5 2 33 46 63 98 29 52 53 89 53 83 0 -6 -18 -53 -40
-104 -22 -52 -37 -97 -33 -101 5 -4 16 -9 26 -11 15 -2 46 59 182 357 108 239
165 378 170 410 3 28 8 60 11 73 7 33 -7 27 -58 -25z"/>
<path d="M1928 2773 c-19 -5 -32 -40 -26 -70 2 -9 15 -22 30 -27 55 -19 93 55
46 88 -12 9 -25 15 -28 15 -3 -1 -13 -3 -22 -6z"/>
<path d="M1633 2705 c-30 -21 -46 -77 -39 -130 6 -37 11 -45 38 -54 17 -6 33
-10 35 -8 2 2 -1 27 -7 56 -11 59 -1 91 29 91 10 0 21 9 24 21 4 15 -1 22 -19
30 -33 12 -36 12 -61 -6z"/>
<path d="M1734 2655 c-22 -22 -25 -32 -22 -92 3 -65 4 -67 35 -80 l32 -13 -2
73 -2 72 38 -1 c32 -1 38 2 44 23 7 31 -9 43 -60 43 -27 0 -45 -7 -63 -25z"/>
<path d="M1861 2558 c-16 -51 -27 -96 -23 -99 4 -4 17 -10 29 -13 19 -6 24 1
53 90 27 79 30 98 19 105 -36 23 -48 10 -78 -83z"/>
<path d="M1975 2615 c-3 -8 -7 -21 -9 -29 -3 -9 6 -18 25 -25 40 -14 37 -41
-11 -92 -22 -23 -40 -43 -40 -45 0 -1 13 -7 29 -12 34 -12 48 -4 86 47 44 61
31 131 -30 157 -43 17 -45 17 -50 -1z"/>
<path d="M2115 2550 c-4 -12 0 -26 9 -36 14 -13 14 -19 1 -43 -8 -16 -29 -41
-46 -55 -37 -31 -34 -38 18 -40 34 -1 40 3 70 48 18 26 33 59 33 71 0 48 -72
96 -85 55z"/>
<path d="M1567 2473 c-4 -3 -7 -14 -7 -24 0 -20 -7 -23 -190 -65 -63 -14 -125
-32 -137 -40 -28 -17 -32 -64 -6 -64 15 0 15 -1 0 -18 -23 -25 -21 -84 1 -113
21 -25 47 -27 150 -14 53 7 65 5 82 -10 23 -21 26 -63 6 -90 -15 -20 -34 -22
-164 -14 -46 2 -56 -1 -78 -23 -18 -17 -28 -40 -31 -72 -3 -25 -2 -46 2 -46 4
0 20 9 36 21 36 25 125 27 212 4 32 -8 60 -15 62 -15 2 0 2 -6 -1 -14 -4 -10
-15 -11 -47 -5 -69 13 -127 10 -217 -12 -99 -24 -239 -28 -348 -9 -67 11 -73
14 -86 44 -20 47 -40 63 -104 81 -31 9 -65 18 -74 21 -11 3 -26 -9 -47 -40
-17 -24 -31 -47 -31 -50 0 -3 9 -10 21 -16 16 -9 26 -8 44 4 48 31 35 -14 -22
-76 l-25 -26 42 -31 c46 -33 92 -46 142 -39 24 4 80 -16 237 -84 l206 -89 21
25 22 24 6 -81 c3 -45 7 -92 8 -105 3 -22 -11 -29 -157 -88 -173 -69 -215 -72
-118 -6 52 35 60 38 69 24 9 -13 17 -5 47 46 20 35 37 67 37 71 0 5 -29 3 -65
-4 -74 -14 -72 -17 -56 78 4 26 5 47 1 47 -3 0 -30 -16 -60 -34 l-55 -35 -15
59 c-8 32 -18 62 -22 65 -4 4 -23 -16 -43 -44 -20 -28 -41 -49 -46 -45 -5 3
-23 25 -39 50 -17 24 -35 44 -39 44 -5 0 -14 -27 -21 -60 -7 -33 -18 -60 -24
-60 -6 0 -31 14 -56 30 -56 37 -63 37 -56 3 3 -16 8 -46 11 -69 l6 -41 -68 13
c-37 7 -69 11 -71 10 -4 -5 69 -125 79 -132 5 -3 12 2 15 10 5 13 12 11 44
-11 33 -24 38 -34 43 -78 4 -27 9 -66 13 -85 6 -35 5 -36 -85 -98 -49 -34 -93
-67 -96 -71 -2 -5 3 -18 13 -30 17 -21 17 -20 115 49 53 38 97 66 97 63 0 -3
-27 -48 -60 -99 -33 -51 -60 -96 -60 -101 0 -13 42 -36 49 -26 3 5 33 51 65
101 33 50 61 90 63 88 2 -1 -6 -53 -18 -115 -12 -61 -19 -114 -17 -116 2 -3
15 -6 29 -7 23 -3 25 1 48 122 l25 125 24 -128 25 -129 26 7 c14 4 27 8 29 10
2 2 -6 49 -17 106 -12 56 -21 109 -21 118 0 9 28 -27 61 -79 34 -52 64 -99 68
-103 4 -4 18 0 31 11 l22 18 -61 93 c-34 52 -59 96 -57 98 3 3 42 -22 88 -54
46 -32 88 -62 94 -66 7 -4 19 4 28 18 16 24 16 25 -53 72 -39 27 -70 50 -71
53 0 7 460 113 466 107 3 -3 -9 -15 -25 -27 -17 -12 -31 -26 -31 -33 0 -9 30
-48 104 -134 10 -12 46 -44 78 -70 83 -66 91 -85 83 -191 -8 -95 4 -143 48
-191 31 -34 95 -61 144 -61 61 0 98 -34 97 -90 -2 -62 -30 -85 -128 -106 -91
-20 -126 -45 -126 -92 0 -31 35 -72 62 -72 9 0 19 12 23 28 l8 27 6 -25 c7
-24 9 -25 111 -28 162 -4 200 22 200 139 0 77 10 109 46 152 59 70 56 135 -5
166 -21 11 -52 36 -69 56 -26 29 -32 44 -32 83 0 80 6 90 62 101 67 15 100 34
140 81 44 51 58 98 58 198 0 67 -8 104 -46 228 -54 177 -64 252 -40 289 35 53
112 57 160 8 14 -14 26 -34 26 -44 0 -25 25 -24 51 2 18 18 20 30 17 70 -5 44
-3 49 14 49 29 0 75 30 87 57 17 38 13 98 -8 124 -11 13 -21 22 -23 19 -1 -3
-10 -18 -19 -35 -16 -33 -16 -32 -140 -19 -50 5 -59 3 -87 -21 -17 -14 -36
-40 -43 -58 -8 -22 -25 -38 -53 -52 -97 -47 -102 -170 -19 -430 32 -100 37
-224 11 -271 -18 -32 -70 -64 -106 -64 -17 0 -23 10 -32 58 -17 78 -30 100
-111 190 -39 42 -78 90 -86 106 -17 33 -20 86 -5 111 8 15 11 14 19 -11 9 -26
69 -94 82 -94 4 0 7 21 7 48 1 26 5 76 9 112 6 50 4 74 -8 103 -9 20 -12 37
-6 37 17 0 49 -40 49 -61 0 -29 19 -14 41 35 23 50 24 133 4 183 -8 19 -15 37
-15 39 0 11 58 2 78 -12 21 -14 23 -14 32 11 22 59 7 121 -42 172 l-31 32 27
7 c17 4 35 1 50 -9 28 -19 36 -13 36 23 0 36 -38 91 -76 111 -31 15 -31 15
-13 38 51 63 1 161 -81 161 -24 0 -122 26 -227 60 -184 59 -213 66 -226 53z
m62 -123 c10 -5 26 -21 35 -36 17 -25 17 -26 -4 -19 -13 4 -29 8 -36 9 -7 1
-17 5 -20 9 -4 4 -21 7 -38 7 l-31 0 25 20 c28 22 43 24 69 10z m-832 -862
c-4 -13 -9 -43 -13 -67 -8 -51 -16 -38 -28 42 -7 46 -7 47 19 47 23 0 26 -3
22 -22z m-88 -103 c1 -19 1 -19 -12 0 -7 11 -24 37 -36 58 l-23 37 24 9 c21 8
24 5 35 -38 6 -25 12 -55 12 -66z m184 66 c-9 -14 -23 -36 -31 -49 -22 -33
-25 -21 -12 42 11 54 12 55 36 44 23 -11 24 -12 7 -37z m-273 -57 c18 -25 30
-47 28 -50 -3 -2 -26 11 -51 29 -44 31 -46 34 -30 50 10 9 18 17 20 17 1 0 16
-21 33 -46z m363 29 c14 -17 12 -20 -34 -51 -27 -17 -49 -29 -49 -26 0 11 54
94 61 94 3 0 13 -8 22 -17z"/>
<path d="M1072 2251 c-63 -102 -17 -210 89 -210 155 -1 280 6 289 15 16 16 4
52 -19 59 -10 3 -38 1 -62 -4 -64 -15 -156 -13 -188 3 -37 19 -57 52 -74 117
l-14 54 -21 -34z"/>
<path d="M517 2186 c-15 -12 -27 -27 -27 -34 0 -35 190 -142 288 -163 61 -12
72 -6 72 42 0 23 -6 27 -52 38 -74 16 -155 55 -208 100 l-46 39 -27 -22z"/>
<path d="M444 1996 c-19 -41 -34 -79 -34 -85 0 -14 102 -91 112 -85 11 7 10
52 -2 74 -7 13 -6 21 5 30 8 7 24 28 36 47 l21 34 -28 30 c-48 50 -70 41 -110
-45z"/>
<path d="M1284 1077 c-181 -133 -288 -355 -257 -532 7 -43 14 -53 51 -78 46
-31 50 -43 27 -88 -20 -37 -41 -45 -180 -70 -79 -15 -116 -26 -132 -41 -29
-27 -31 -80 -3 -108 26 -26 60 -26 60 -1 0 11 5 23 10 26 6 4 10 -5 10 -19 l0
-26 243 0 c220 0 245 2 260 18 40 44 29 106 -30 159 l-36 33 5 78 c13 191 109
306 291 346 22 5 27 12 27 37 0 32 -14 48 -108 127 -29 24 -77 74 -108 113
-31 38 -60 69 -64 69 -4 0 -34 -19 -66 -43z"/>
</g>
</svg>
